<?xml version="1.0" encoding="utf-8"?>
<!-- Generator: Adobe Illustrator 19.0.0, SVG Export Plug-In . SVG Version: 6.00 Build 0)  -->
<!DOCTYPE svg PUBLIC "-//W3C//DTD SVG 1.1//EN" "http://www.w3.org/Graphics/SVG/1.1/DTD/svg11.dtd">
<svg version="1.1" id="Layer_1" xmlns="http://www.w3.org/2000/svg" xmlns:xlink="http://www.w3.org/1999/xlink" x="0px" y="0px"
	 viewBox="0 0 595.3 841.9" style="enable-background:new 0 0 595.3 841.9;" xml:space="preserve">
<style type="text/css">
	.st0{fill:#ABAC36;}
	.st1{fill:#F4F2F1;}
	.st2{fill:#F4F2E9;}
	.st3{fill:#BFC2A3;}
	.st4{fill:#BABA9C;}
	.st5{fill:#8F8F51;}
	.st6{fill:#65642A;}
	.st7{fill:#D3D5BC;}
	.st8{fill:#DFDFCD;}
	.st9{fill:#B7BA99;}
	.st10{fill:#9A9C73;}
	.st11{fill:#7C7D4F;}
	.st12{fill:#62612B;}
	.st13{fill:#626029;}
	.st14{fill:#625E28;}
	.st15{fill:#C7C6AE;}
	.st16{opacity:0.75;fill:#D1CEB4;}
	.st17{opacity:0.75;fill:#A1A36F;}
	.st18{opacity:0.75;fill:#767E3A;}
	.st19{fill:#6D6F2F;}
	.st20{fill:#6C6D2E;}
	.st21{fill:#67652B;}
	.st22{fill:#5A5A26;}
	.st23{fill:#4D4B20;}
	.st24{fill:#807C5A;}
	.st25{fill:#E4E0D2;}
	.st26{opacity:0.75;fill:#999B5D;}
	.st27{opacity:0.75;fill:#979953;}
	.st28{opacity:0.75;fill:#979754;}
	.st29{opacity:0.75;fill:#878A45;}
	.st30{opacity:0.75;fill:#7E823B;}
	.st31{opacity:0.75;fill:#747732;}
	.st32{opacity:0.75;fill:#6D692C;}
	.st33{fill:#5E5E28;}
	.st34{fill:#5A5524;}
	.st35{opacity:0.75;fill:#7D7D3A;}
	.st36{opacity:0.75;fill:#777A32;}
	.st37{opacity:0.75;fill:#727530;}
	.st38{opacity:0.75;fill:#6A6C2D;}
	.st39{opacity:0.75;fill:#858E54;}
	.st40{opacity:0.75;fill:#8D9759;}
	.st41{opacity:0.75;fill:#878F49;}
	.st42{opacity:0.75;fill:#7B8235;}
	.st43{opacity:0.75;fill:#6D6E2F;}
	.st44{opacity:0.75;fill:#6F6E2E;}
	.st45{opacity:0.75;fill:#64632A;}
	.st46{opacity:0.75;fill:#63632A;}
	.st47{opacity:0.75;fill:#60622A;}
	.st48{opacity:0.75;fill:#63652B;}
	.st49{fill:#898E47;}
	.st50{opacity:0.5;fill:#8F9156;}
	.st51{opacity:0.5;fill:#85874A;}
	.st52{opacity:0.5;fill:#999958;}
	.st53{opacity:0.5;fill:#B9AE86;}
	.st54{opacity:0.5;fill:#DAD0B6;}
	.st55{opacity:0.75;fill:#D5D4C3;}
	.st56{opacity:0.75;fill:#5E5F3C;}
	.st57{opacity:0.75;fill:#555B2B;}
	.st58{opacity:0.75;fill:#727B3F;}
	.st59{opacity:0.75;fill:#7D8443;}
	.st60{opacity:0.75;fill:#727631;}
	.st61{opacity:0.75;fill:#7D7C34;}
	.st62{opacity:0.75;fill:#8B8851;}
	.st63{opacity:0.75;fill:#9C9C6F;}
	.st64{opacity:0.75;fill:#B7B593;}
	.st65{opacity:0.75;fill:#F2F0E7;}
	.st66{opacity:0.5;fill:#767E42;}
	.st67{opacity:0.5;fill:#7B833C;}
	.st68{opacity:0.5;fill:#7B8636;}
	.st69{opacity:0.5;fill:#7D8937;}
	.st70{opacity:0.5;fill:#828835;}
	.st71{opacity:0.5;fill:#959557;}
	.st72{opacity:0.5;fill:#979867;}
	.st73{opacity:0.75;fill:#888C57;}
	.st74{opacity:0.75;fill:#868B57;}
	.st75{opacity:0.75;fill:#8B915D;}
	.st76{opacity:0.75;fill:#8C955F;}
	.st77{opacity:0.75;fill:#818558;}
	.st78{opacity:0.75;fill:#979A70;}
	.st79{opacity:0.75;fill:#9DA177;}
	.st80{opacity:0.5;fill:#6C7531;}
	.st81{opacity:0.5;fill:#6E7631;}
	.st82{opacity:0.5;fill:#727832;}
	.st83{opacity:0.5;fill:#7E8236;}
	.st84{opacity:0.75;fill:#96954E;}
	.st85{opacity:0.75;fill:#B2B48A;}
	.st86{opacity:0.75;fill:#F2EFEA;}
	.st87{opacity:0.75;fill:#727330;}
	.st88{opacity:0.75;fill:#CAC9AC;}
	.st89{fill:#C1C3A0;}
	.st90{fill:#FDFAF8;}
	.st91{fill:#FBF7F1;}
	.st92{fill:#FAF4ED;}
	.st93{fill:#FAF4EC;}
	.st94{fill:#FFFFFF;}
	.st95{fill:#498BC9;}
</style>
<g>
	<path class="st0" d="M498.8,390.6c-6.7,2.5-12.2,2.8-25.4,4.2c-16.4,1.8-38.1,5.5-59.9,4.5c-21.8-0.9-29.9,5.5-46.3,6
		c-16.3,0.6-30.9-10.6-48.3-10.6c-16.8,0-36.7,17.9-56,24c-8.9-0.8-16.5-1.6-21.9-2.2c7.1-1.9,15.3-3.6,26.3-4.5
		c24.5-1.8,21.8-17.3,32.4-19.1c10.6-1.8,20.1-4.6,20.1-4.6s17.5-24,32-30.8c6.4-3,8.9-9.3,8.6-17.6c0.9-2.3,1.5-4.8,2-7.3
		c-0.5,2.3-1.2,4.5-2,6.6c-0.2-3.6-1-7.5-2.1-11.7c4.7,17.4-4.7,16.4-10.2,19c-5.7,2.7-17,1.8-29,7.3c-11.9,5.5-22,8.2-33.5,10.9
		s-20-0.2-34.1,4.5c-16,5.4-24,6.4-43.1,15.4c-19.1,9.1-23.6,8.2-34.1,7.3c-10.5-0.9-23.1-4.5-38.6,0c-11,2.7-13.4,14.2-29,20
		c-0.4,0.1-0.7,0.3-0.9,0.4c-8.9,0.5-17.7,1.2-26.8,2.3v4.1c11.4-1.5,22.3-2.1,33.6-2.8c9.2,2.3,25.7,5.8,42.4,13
		c30.1,13.1,45.6-3.5,61.6-6.3c5.3-0.9,9.9-2.2,14.7-3.6c0.2,0,0.4,0.1,0.7,0.2l0-0.3c-0.1,0-0.2,0-0.2,0c0.1,0,0.2,0,0.2-0.1l0,0.1
		c3.8,0.4,15.6,2,31.9,3.6c13.4,5.6,44.3,24.4,64.9,28.3c24.1,4.5,26.8-5.5,38.6-9.1c11.8-3.6,42.1-6.9,57.3-11.1
		c15.3-4.2,26.2-5.2,39.2-11.6c13-6.4,17.1-14.6,40.2-30.9C503.9,388.4,502,389.2,498.8,390.6z"/>
	<path class="st0" d="M391.5,453.5c-9.6-0.2-18.6-6.3-35.3-2.5c-20,4.5-56.2-2.1-71.7-7.4c-15.5-5.3-31.9,2.8-43.7,2.9
		c-11.8,0.1-30.5-15.3-44.4-11.9l-34.6,5c-10-4.5-12.3-8.4-15.4-13.5c-1.3-2.1-2.7-4.5-4.7-7.2l-3.2,2.5c1.9,2.5,3.2,4.7,4.5,6.8
		c3.4,5.8,6.1,10.3,17.3,15.2c8.4,10.9,21.1,22.2,36.5,24.5c17,2.5,19,6.2,30.8,10.6c11.8,4.4,43.2,8.6,75.5-0.8s35.2-4.9,57.8-12.4
		s23.9-5.1,35.9-11.6C396.4,453.8,394.4,453.6,391.5,453.5z"/>
	<g>
		<rect x="348.1" y="317.5" class="st1" width="14.2" height="14.2"/>
		<rect x="333.9" y="331.7" class="st2" width="14.2" height="14.2"/>
		<rect x="348.1" y="331.7" class="st3" width="14.2" height="14.2"/>
		<rect x="305.6" y="345.9" class="st4" width="14.2" height="14.2"/>
		<rect x="319.7" y="345.9" class="st5" width="14.2" height="14.2"/>
		<rect x="333.9" y="345.9" class="st6" width="14.2" height="14.2"/>
		<rect x="348.1" y="345.9" class="st7" width="14.2" height="14.2"/>
		<rect x="234.7" y="360" class="st8" width="14.2" height="14.2"/>
		<rect x="248.9" y="360" class="st9" width="14.2" height="14.2"/>
		<rect x="263" y="360" class="st10" width="14.2" height="14.2"/>
		<rect x="277.2" y="360" class="st11" width="14.2" height="14.2"/>
		<rect x="291.4" y="360" class="st12" width="14.2" height="14.2"/>
		<rect x="305.6" y="360" class="st13" width="14.2" height="14.2"/>
		<rect x="319.7" y="360" class="st14" width="14.2" height="14.2"/>
		<rect x="333.9" y="360" class="st15" width="14.2" height="14.2"/>
		<rect x="192.2" y="374.2" class="st16" width="14.2" height="14.2"/>
		<rect x="206.3" y="374.2" class="st17" width="14.2" height="14.2"/>
		<rect x="220.5" y="374.2" class="st18" width="14.2" height="14.2"/>
		<rect x="234.7" y="374.2" class="st19" width="14.2" height="14.2"/>
		<rect x="248.9" y="374.2" class="st20" width="14.2" height="14.2"/>
		<rect x="263" y="374.2" class="st21" width="14.2" height="14.2"/>
		<rect x="277.2" y="374.2" class="st22" width="14.2" height="14.2"/>
		<rect x="291.4" y="374.2" class="st23" width="14.2" height="14.2"/>
		<rect x="305.6" y="374.2" class="st24" width="14.2" height="14.2"/>
		<rect x="319.7" y="374.2" class="st25" width="14.2" height="14.2"/>
		<rect x="135.5" y="388.4" class="st26" width="14.2" height="14.2"/>
		<rect x="149.6" y="388.4" class="st27" width="14.2" height="14.2"/>
		<rect x="163.8" y="388.4" class="st28" width="14.2" height="14.2"/>
		<rect x="178" y="388.4" class="st29" width="14.2" height="14.2"/>
		<rect x="192.2" y="388.4" class="st30" width="14.2" height="14.2"/>
		<rect x="206.3" y="388.4" class="st31" width="14.2" height="14.2"/>
		<rect x="220.5" y="388.4" class="st32" width="14.2" height="14.2"/>
		<rect x="234.7" y="388.4" class="st13" width="14.2" height="14.2"/>
		<rect x="248.9" y="388.4" class="st33" width="14.2" height="14.2"/>
		<rect x="263" y="388.4" class="st34" width="14.2" height="14.2"/>
		<rect x="135.5" y="402.6" class="st35" width="14.2" height="14.2"/>
		<rect x="149.6" y="402.6" class="st36" width="14.2" height="14.2"/>
		<rect x="163.8" y="402.6" class="st37" width="14.2" height="14.2"/>
		<rect x="178" y="402.6" class="st38" width="14.2" height="14.2"/>
		<rect x="291.4" y="416.7" class="st39" width="14.2" height="14.2"/>
		<rect x="305.6" y="416.7" class="st40" width="14.2" height="14.2"/>
		<rect x="319.7" y="416.7" class="st41" width="14.2" height="14.2"/>
		<rect x="333.9" y="416.7" class="st42" width="14.2" height="14.2"/>
		<rect x="348.1" y="416.7" class="st43" width="14.2" height="14.2"/>
		<rect x="362.2" y="416.7" class="st44" width="14.2" height="14.2"/>
		<rect x="376.4" y="416.7" class="st45" width="14.2" height="14.2"/>
		<rect x="390.6" y="416.7" class="st46" width="14.2" height="14.2"/>
		<rect x="404.8" y="416.7" class="st47" width="14.2" height="14.2"/>
		<rect x="418.9" y="416.7" class="st48" width="14.2" height="14.2"/>
		<rect x="433.1" y="416.7" class="st49" width="14.2" height="14.2"/>
		<rect x="178" y="430.9" class="st50" width="14.2" height="14.2"/>
		<rect x="192.2" y="430.9" class="st51" width="14.2" height="14.2"/>
		<rect x="206.3" y="430.9" class="st52" width="14.2" height="14.2"/>
		<rect x="220.5" y="430.9" class="st53" width="14.2" height="14.2"/>
		<rect x="234.7" y="430.9" class="st54" width="14.2" height="14.2"/>
		<rect x="277.2" y="430.9" class="st55" width="14.2" height="14.2"/>
		<rect x="291.4" y="430.9" class="st56" width="14.2" height="14.2"/>
		<rect x="305.6" y="430.9" class="st57" width="14.2" height="14.2"/>
		<rect x="319.7" y="430.9" class="st58" width="14.2" height="14.2"/>
		<rect x="333.9" y="430.9" class="st59" width="14.2" height="14.2"/>
		<rect x="348.1" y="430.9" class="st60" width="14.2" height="14.2"/>
		<rect x="362.2" y="430.9" class="st61" width="14.2" height="14.2"/>
		<rect x="376.4" y="430.9" class="st62" width="14.2" height="14.2"/>
		<rect x="390.6" y="430.9" class="st63" width="14.2" height="14.2"/>
		<rect x="404.8" y="430.9" class="st64" width="14.2" height="14.2"/>
		<rect x="418.9" y="430.9" class="st65" width="14.2" height="14.2"/>
		<rect x="178" y="445.1" class="st66" width="14.2" height="14.2"/>
		<rect x="192.2" y="445.1" class="st67" width="14.2" height="14.2"/>
		<rect x="206.3" y="445.1" class="st68" width="14.2" height="14.2"/>
		<rect x="220.5" y="445.1" class="st69" width="14.2" height="14.2"/>
		<rect x="234.7" y="445.1" class="st70" width="14.2" height="14.2"/>
		<rect x="248.9" y="445.1" class="st71" width="14.2" height="14.2"/>
		<rect x="263" y="445.1" class="st72" width="14.2" height="14.2"/>
		<rect x="277.2" y="445.1" class="st73" width="14.2" height="14.2"/>
		<rect x="291.4" y="445.1" class="st74" width="14.2" height="14.2"/>
		<rect x="305.6" y="445.1" class="st75" width="14.2" height="14.2"/>
		<rect x="319.7" y="445.1" class="st76" width="14.2" height="14.2"/>
		<rect x="333.9" y="445.1" class="st77" width="14.2" height="14.2"/>
		<rect x="348.1" y="445.1" class="st78" width="14.2" height="14.2"/>
		<rect x="362.2" y="445.1" class="st79" width="14.2" height="14.2"/>
		<rect x="234.7" y="459.2" class="st80" width="14.2" height="14.2"/>
		<rect x="248.9" y="459.2" class="st81" width="14.2" height="14.2"/>
		<rect x="263" y="459.2" class="st82" width="14.2" height="14.2"/>
		<rect x="248.9" y="473.4" class="st83" width="14.2" height="14.2"/>
		<rect x="475.6" y="388.4" class="st84" width="14.2" height="14.2"/>
		<rect x="489.8" y="388.4" class="st85" width="14.2" height="14.2"/>
		<rect x="504" y="388.4" class="st86" width="14.2" height="14.2"/>
		<rect x="447.3" y="402.6" class="st87" width="14.2" height="14.2"/>
		<rect x="475.6" y="402.6" class="st88" width="14.2" height="14.2"/>
		<rect x="447.3" y="416.7" class="st89" width="14.2" height="14.2"/>
	</g>
	<rect x="135.5" y="374.2" class="st90" width="14.2" height="14.2"/>
	<rect x="149.6" y="374.2" class="st91" width="14.2" height="14.2"/>
	<rect x="163.8" y="374.2" class="st92" width="14.2" height="14.2"/>
	<rect x="178" y="374.2" class="st93" width="14.2" height="14.2"/>
	<path class="st94" d="M377.3,456.2c-89.8,3.5-125.7,5.7-173-5c-10.8-2.5-19.4-4.6-26.2-6.6v4.2c6.8,2,15.1,4.2,25.3,6.4
		c33.1,6.9,55.7,7.8,72.1,7.7c45.8-0.3,81.5-4.1,101.8-5.4c9.6-0.6,17.9-3.3,19.6-3.9C395,454.3,387.3,455.8,377.3,456.2z"/>
	<path class="st94" d="M445,412.1c-24.4,8.9-67.8,8.7-105,9.5c-3.9,0.1-7.7,0.2-11.4,0.2c-11.6,0.3-24.6-0.2-37.2-0.9v4
		c9.5,0.6,19.7,0.9,30,1c2.5,0,4.9,0,7.2-0.1c3.7-0.1,7.6-0.2,11.4-0.2c37.5-0.8,79.9-2,105.1-10.8c31.9-11.2,58.4-26.4,58.8-26.5
		C503.6,388.5,472,402.2,445,412.1z"/>
	<path class="st94" d="M314.5,375.2c-20.4,8.8-78.1,19.1-131.1,29.1c-18.5,3.5-33.8,5.2-47.9,6.3v4.1c14.1-1.1,30-2.8,48.6-6.4
		c53.2-10.1,110.5-21.7,131.2-30.7c23.4-10.2,43.4-23.7,46.9-45C358,353.9,336.7,365.5,314.5,375.2z"/>
	<g>
		<path class="st95" d="M104.1,501.1c3.1,0,5.2,1.4,6.6,2.8l-2.2,2.4c-1.1-1.1-2.3-1.8-4.4-1.8c-3.9,0-6.5,3-6.5,8
			c0,5,2.4,8.1,6.8,8.1c1.2,0,2.4-0.3,3.1-1v-4.8h-4.1v-3.2h7.7v9.7c-1.5,1.4-4.1,2.6-7.1,2.6c-5.9,0-10.3-4-10.3-11.4
			C93.5,505.4,98.1,501.1,104.1,501.1z"/>
		<path class="st95" d="M127.8,523.6l-4.8-8.6h-3.3v8.6h-3.9v-22.1h7.4c4.6,0,8.1,1.6,8.1,6.5c0,3.4-1.8,5.4-4.4,6.3l5.3,9.2H127.8z
			 M119.7,511.8h3.1c3,0,4.7-1.3,4.7-3.8c0-2.5-1.6-3.4-4.7-3.4h-3.1V511.8z"/>
		<path class="st95" d="M134.7,512.4c0-7.1,4-11.3,9.7-11.3c5.7,0,9.7,4.2,9.7,11.3c0,7.1-4,11.5-9.7,11.5
			C138.6,524,134.7,519.6,134.7,512.4z M150.1,512.4c0-4.9-2.3-7.9-5.7-7.9c-3.5,0-5.7,3-5.7,7.9c0,5,2.3,8.1,5.7,8.1
			C147.8,520.6,150.1,517.4,150.1,512.4z"/>
		<path class="st95" d="M156.1,501.5h4l1.9,11.1c0.4,2.4,0.7,4.7,1.1,7h0.1c0.4-2.3,0.9-4.7,1.4-7l2.7-11.1h3.4l2.7,11.1
			c0.5,2.3,1,4.7,1.4,7h0.1c0.4-2.4,0.7-4.7,1.1-7l1.9-11.1h3.8l-4.2,22.1h-4.9L170,512c-0.4-1.7-0.7-3.4-1-5.1h-0.1
			c-0.3,1.7-0.6,3.4-1,5.1l-2.7,11.6h-4.8L156.1,501.5z"/>
		<path class="st95" d="M185.2,501.5h3.9v22.1h-3.9V501.5z"/>
		<path class="st95" d="M194.6,501.5h4l6.8,12.4l2.3,4.7h0.1c-0.2-2.3-0.5-5.1-0.5-7.5v-9.6h3.7v22.1h-4l-6.8-12.4l-2.3-4.7h-0.1
			c0.2,2.3,0.5,5,0.5,7.5v9.6h-3.7V501.5z"/>
		<path class="st95" d="M226,501.1c3.1,0,5.2,1.4,6.6,2.8l-2.2,2.4c-1.1-1.1-2.3-1.8-4.4-1.8c-3.9,0-6.5,3-6.5,8
			c0,5,2.4,8.1,6.8,8.1c1.2,0,2.4-0.3,3.1-1v-4.8h-4.1v-3.2h7.7v9.7c-1.5,1.4-4.1,2.6-7.1,2.6c-5.9,0-10.3-4-10.3-11.4
			C215.4,505.4,220,501.1,226,501.1z"/>
		<path class="st95" d="M244.6,501.5h5.9c6.7,0,10.8,3.6,10.8,10.9c0,7.3-4,11.1-10.6,11.1h-6.1V501.5z M250.2,520.4
			c4.5,0,7-2.5,7-8c0-5.4-2.6-7.8-7-7.8h-1.7v15.7H250.2z"/>
		<path class="st95" d="M275.5,517.6h-7.4l-1.7,6h-4l7.2-22.1h4.6l7.2,22.1h-4.1L275.5,517.6z M274.6,514.5l-0.8-2.7
			c-0.7-2.3-1.3-4.9-2-7.3h-0.1c-0.6,2.5-1.2,5-2,7.3l-0.8,2.7H274.6z"/>
		<path class="st95" d="M287,504.8h-6.4v-3.3h16.6v3.3H291v18.7H287V504.8z"/>
		<path class="st95" d="M309.8,517.6h-7.4l-1.7,6h-4l7.2-22.1h4.6l7.2,22.1h-4.1L309.8,517.6z M308.9,514.5l-0.8-2.7
			c-0.7-2.3-1.3-4.9-2-7.3H306c-0.6,2.5-1.2,5-2,7.3l-0.8,2.7H308.9z"/>
		<path class="st95" d="M325.5,501.4h12.1v1.3H327v8.8h8.9v1.3H327v10.7h-1.6V501.4z"/>
		<path class="st95" d="M339.5,512.4c0-7,3.8-11.4,9.2-11.4c5.3,0,9.1,4.4,9.1,11.4c0,7-3.8,11.6-9.1,11.6
			C343.3,524,339.5,519.4,339.5,512.4z M356.2,512.4c0-6.1-3-10-7.5-10c-4.5,0-7.6,3.9-7.6,10c0,6.2,3,10.2,7.6,10.2
			C353.2,522.6,356.2,518.5,356.2,512.4z"/>
		<path class="st95" d="M362.6,501.4h1.6v13.5c0,5.9,2.8,7.7,5.9,7.7c3.2,0,6-1.8,6-7.7v-13.5h1.5V515c0,6.9-3.7,8.9-7.5,8.9
			c-3.8,0-7.5-2-7.5-8.9V501.4z"/>
		<path class="st95" d="M383.8,501.4h1.6l9.3,15.7l2.5,4.4h0.1c-0.1-2.2-0.2-4.3-0.2-6.5v-13.6h1.5v22.2h-1.6l-9.3-15.7l-2.5-4.4
			h-0.1c0.1,2.1,0.2,4.1,0.2,6.3v13.8h-1.5V501.4z"/>
		<path class="st95" d="M405,501.4h5.1c6.8,0,10.1,4.3,10.1,11c0,6.7-3.3,11.2-10.1,11.2H405V501.4z M410,522.3c6,0,8.7-4.1,8.7-9.9
			c0-5.8-2.6-9.7-8.7-9.7h-3.4v19.6H410z"/>
		<path class="st95" d="M434.8,516H426l-2.6,7.6h-1.6l7.9-22.2h1.6l7.8,22.2h-1.7L434.8,516z M434.4,514.6l-1.4-4.1
			c-0.9-2.6-1.7-5-2.5-7.7h-0.1c-0.8,2.7-1.6,5.1-2.5,7.7l-1.4,4.1H434.4z"/>
		<path class="st95" d="M445.8,502.7h-7.1v-1.3h15.7v1.3h-7v20.9h-1.6V502.7z"/>
		<path class="st95" d="M458.5,501.4h1.6v22.2h-1.6V501.4z"/>
		<path class="st95" d="M464.9,512.4c0-7,3.8-11.4,9.2-11.4c5.3,0,9.1,4.4,9.1,11.4c0,7-3.8,11.6-9.1,11.6
			C468.7,524,464.9,519.4,464.9,512.4z M481.6,512.4c0-6.1-3-10-7.5-10c-4.5,0-7.6,3.9-7.6,10c0,6.2,3,10.2,7.6,10.2
			C478.5,522.6,481.6,518.5,481.6,512.4z"/>
		<path class="st95" d="M488.1,501.4h1.6L499,517l2.5,4.4h0.1c-0.1-2.2-0.2-4.3-0.2-6.5v-13.6h1.5v22.2h-1.6l-9.3-15.7l-2.5-4.4
			h-0.1c0.1,2.1,0.2,4.1,0.2,6.3v13.8h-1.5V501.4z"/>
	</g>
</g>
</svg>
